<?xml version="1.0" standalone="no"?>
<!DOCTYPE svg PUBLIC "-//W3C//DTD SVG 20010904//EN"
 "http://www.w3.org/TR/2001/REC-SVG-20010904/DTD/svg10.dtd">
<svg version="1.0" xmlns="http://www.w3.org/2000/svg"
 width="512.000000pt" height="512.000000pt" viewBox="0 0 512.000000 512.000000"
 preserveAspectRatio="xMidYMid meet">
<metadata>
Created by potrace 1.11, written by Peter Selinger 2001-2013
</metadata>
<g transform="translate(0.000000,512.000000) scale(0.100000,-0.100000)"
fill="#000000" stroke="none">
<path d="M1800 4810 c-121 -15 -285 -73 -419 -148 -25 -14 -62 -34 -81 -45
-46 -25 -153 -102 -198 -141 -47 -41 -95 -119 -113 -181 -18 -66 -16 -203 6
-288 9 -37 18 -73 19 -80 3 -14 20 -58 43 -110 9 -21 16 -44 16 -52 0 -8 3
-15 7 -15 4 0 19 -26 34 -57 37 -78 68 -135 84 -151 11 -12 17 -42 8 -42 -2 0
-22 7 -45 15 -23 8 -44 14 -46 14 -3 0 -36 3 -73 7 -82 10 -189 7 -245 -6 -60
-14 -70 -13 -64 8 111 353 142 513 141 727 -2 189 -39 304 -133 407 -77 84
-220 151 -229 107 -2 -12 18 -26 70 -51 166 -80 237 -213 243 -458 5 -187 -33
-391 -117 -645 -46 -138 -68 -165 -74 -90 -23 271 -59 439 -123 570 -46 96
-96 156 -167 201 -59 38 -162 70 -177 55 -18 -18 2 -38 50 -50 166 -42 271
-192 328 -468 9 -43 18 -96 21 -118 3 -22 7 -53 9 -70 3 -16 7 -66 10 -110 l6
-80 -65 -40 c-171 -103 -297 -277 -347 -476 -28 -109 -23 -301 10 -393 73
-206 240 -379 493 -511 56 -29 57 -30 87 -115 17 -47 49 -121 71 -164 l39 -80
-99 -398 c-55 -219 -100 -404 -100 -411 0 -16 217 -323 247 -350 23 -20 49
-14 58 14 5 15 -22 60 -102 172 -60 84 -112 157 -116 164 -9 14 162 703 173
703 11 0 115 -131 116 -145 0 -5 -15 -55 -35 -109 -24 -70 -31 -101 -23 -104
7 -2 10 -7 8 -11 -3 -4 8 -22 24 -40 16 -17 29 -34 29 -37 0 -5 50 -72 69 -92
6 -7 12 -17 12 -21 0 -4 8 -18 18 -30 9 -11 25 -31 34 -44 58 -76 61 -79 85
-62 15 10 20 21 16 33 -6 16 -42 72 -53 82 -3 3 -35 46 -70 95 -35 50 -69 93
-75 97 -5 4 -6 8 -1 8 6 0 2 6 -9 13 -21 16 -18 37 15 125 6 17 15 32 19 32 4
0 50 -43 102 -95 113 -115 176 -162 311 -235 l103 -55 86 -228 c48 -125 88
-229 90 -231 23 -22 290 -224 301 -229 22 -8 51 16 46 38 -2 11 -67 69 -145
130 l-142 110 -51 140 c-28 77 -55 148 -60 157 -10 17 -14 48 -6 48 2 0 39
-16 82 -36 106 -47 110 -49 179 -72 67 -23 216 -68 256 -77 16 -4 46 -32 79
-76 38 -48 61 -69 77 -69 29 0 39 33 19 62 -24 34 -20 41 19 34 121 -23 401
-35 476 -21 27 5 77 -40 302 -280 l85 -89 177 -1 c159 0 179 2 189 18 8 12 8
22 0 35 -10 15 -31 17 -171 20 l-160 2 -139 146 c-76 81 -140 150 -142 155 -2
5 5 9 15 10 10 0 26 2 36 4 10 2 51 9 90 16 40 7 74 13 77 14 3 1 17 5 31 9
14 4 32 9 40 10 8 2 23 6 34 10 11 5 33 13 49 19 27 10 31 7 75 -42 25 -29 62
-71 83 -93 l36 -41 165 0 c91 1 170 4 176 7 17 11 13 44 -6 55 -10 5 -74 8
-143 7 -134 -2 -190 6 -190 29 0 8 -9 19 -20 25 -11 6 -20 15 -20 20 0 5 -11
20 -25 34 -28 28 -32 46 -10 46 22 0 159 75 236 129 113 78 243 213 291 300
l17 31 421 0 c255 0 419 4 415 9 -3 5 -57 42 -120 83 -137 87 -199 127 -425
273 -143 93 -170 114 -171 135 -4 135 -43 301 -95 401 -7 15 -10 29 -7 33 4 3
1 6 -5 6 -7 0 -12 7 -12 16 0 8 -13 35 -30 59 -16 24 -30 48 -30 53 0 5 -16
30 -35 55 -19 25 -35 48 -35 51 0 3 -8 15 -17 25 -10 11 -29 34 -43 51 -14 18
-61 70 -106 116 -45 46 -79 86 -76 89 3 3 -1 5 -8 5 -7 0 -25 11 -39 25 -53
52 -99 93 -108 96 -25 11 -123 85 -123 94 0 18 76 86 86 78 5 -5 6 -4 1 2 -4
5 9 27 31 50 93 95 141 147 142 153 1 4 14 22 29 40 50 64 67 87 99 137 17 28
36 56 42 63 6 6 8 12 6 12 -3 0 8 23 24 50 17 28 30 52 30 54 0 2 10 25 22 52
12 27 23 55 24 62 1 8 6 21 10 30 9 22 8 15 23 109 12 73 11 87 -4 135 -24 72
-57 136 -99 191 -20 26 -36 49 -36 51 0 2 -28 31 -62 65 -57 56 -229 171 -257
171 -6 0 -11 5 -11 11 0 5 -4 7 -10 4 -5 -3 -19 -1 -31 6 -13 6 -70 25 -128
41 -90 26 -125 30 -231 31 -119 1 -129 -1 -207 -32 -46 -18 -85 -37 -89 -42
-3 -5 -10 -7 -15 -4 -5 4 -9 2 -9 -3 0 -5 -19 -23 -42 -40 -47 -34 -141 -122
-131 -122 4 0 -7 -15 -24 -32 -16 -18 -39 -48 -49 -65 -26 -47 -48 -42 -69 15
-62 164 -177 335 -312 463 -113 108 -252 150 -423 129z"/>
</g>
</svg>
